####
#
#	OBJ File Generated by LightWave3D
#	LightWave3D OBJ Export v2.3
#
####
o flexhinge-05mmx10mm-pointed-plain.obj
mtllib flexhinge-05mmx10mm-pointed-plain.mtl
g default
v 10.5 12 9.97491e-005
v 6 5.5 9.97491e-005
v 6 -4 9.97491e-005
v 10.5 -11 9.97491e-005
v 15.5 -4 9.97491e-005
v 15.5 5.5 9.97491e-005
v 10.5 12 0.4901
v 6 5.5 0.4901
v 6 -4 0.4901
v 10.5 -11 0.4901
v 15.5 -4 0.4901
v 15.5 5.5 0.4901
vn 0.792624 0.609711 0
vn 0.792624 0.609711 0
vn 0.792624 0.609711 0
vn 0.792624 0.609711 -0
vn 0.792624 0.609711 -0
vn 0.792624 0.609711 -0
vn -0.822192 0.56921 -0
vn -0.822192 0.56921 -0
vn -0.822192 0.56921 -0
vn -0.822192 0.56921 -0
vn -0.822192 0.56921 -0
vn -0.822192 0.56921 -0
vn -1 0 -0
vn -1 0 -0
vn -1 0 -0
vn -1 0 -0
vn -1 0 -0
vn -1 0 -0
vn -0.841178 -0.540758 -0
vn -0.841178 -0.540758 -0
vn -0.841178 -0.540758 -0
vn -0.841178 -0.540758 -0
vn -0.841178 -0.540758 -0
vn -0.841178 -0.540758 -0
vn 0.813733 -0.581238 -0
vn 0.813733 -0.581238 -0
vn 0.813733 -0.581238 -0
vn 0.813733 -0.581238 -0
vn 0.813733 -0.581238 -0
vn 0.813733 -0.581238 -0
vn 1 0 -0
vn 1 0 -0
vn 1 0 -0
vn 1 -0 -0
vn 1 -0 -0
vn 1 -0 -0
vn 0 0 -1
vn 0 0 -1
vn 0 0 -1
vn 0 0 -1
vn 0 0 -1
vn 0 0 -1
vn 0 -0 -1
vn 0 -0 -1
vn 0 -0 -1
vn 0 0 -1
vn 0 0 -1
vn 0 0 -1
vn 0 0 1
vn 0 0 1
vn 0 0 1
vn 0 0 1
vn 0 0 1
vn 0 0 1
vn 0 0 1
vn 0 0 1
vn 0 0 1
vn 0 0 1
vn 0 0 1
vn 0 0 1
g Default
usemtl Default
s off
f 6//1 7//2 12//3
f 1//4 7//5 6//6
f 7//7 2//8 8//9
f 7//10 1//11 2//12
f 8//13 3//14 9//15
f 8//16 2//17 3//18
f 9//19 4//20 10//21
f 9//22 3//23 4//24
f 4//25 11//26 10//27
f 5//28 11//29 4//30
f 5//31 12//32 11//33
f 6//34 12//35 5//36
f 1//37 6//38 2//39
f 2//40 6//41 3//42
f 3//43 5//44 4//45
f 6//46 5//47 3//48
f 12//49 7//50 8//51
f 12//52 8//53 11//54
f 11//55 9//56 10//57
f 11//58 8//59 9//60
