####
#
#	OBJ File Generated by LightWave3D
#	LightWave3D OBJ Export v2.3
#
####
o flexhinge-1mmx10mm-tocut.obj
mtllib flexhinge-1mmx10mm-tocut.mtl
g default
v 2.67673 3.2 0.2501
v 2.67673 -1.8 -5.96285e-008
v 2.67673 3.2 -5.96285e-008
v 2.67673 -1.8 0.2501
v 1.22173 -1.8 0.2501
v 1.22173 3.2 2.53421e-007
v 1.22173 -1.8 2.53421e-007
v 1.22173 3.2 0.2501
v 4.8314 3.2 0.250099
v 4.8314 -1.8 -4.3976e-007
v 4.8314 3.2 -4.3976e-007
v 4.8314 -1.8 0.250099
v 3.3764 -1.8 0.250099
v 3.3764 3.2 -1.78885e-007
v 3.3764 -1.8 -1.78885e-007
v 3.3764 3.2 0.250099
v -4.13497 -1.8 0.250101
v -4.13497 3.2 1.22238e-006
v -4.13497 -1.8 1.22238e-006
v -4.13497 3.2 0.250101
v -2.17458 3.2 0.2501
v -2.17458 -1.8 8.64613e-007
v -2.17458 3.2 8.64613e-007
v -2.17458 -1.8 0.2501
v 0.250456 3.2 0.2501
v 0.250456 -1.8 4.02492e-007
v 0.250456 3.2 4.02492e-007
v 0.250456 -1.8 0.2501
v -1.20455 -1.8 0.2501
v -1.20455 3.2 6.85728e-007
v -1.20455 -1.8 6.85728e-007
v -1.20455 3.2 0.2501
v 5.1003 10 0.500199
v 5.1003 3.2 -4.62121e-007
v 5.1003 10 -4.62121e-007
v 5.1003 3.2 0.500199
v -4.5997 10 0.5002
v -4.5997 10 1.26711e-006
v -4.5997 3.2 0.5002
v -4.5997 3.2 1.26711e-006
v -4.5997 -8.6 0.5002
v -4.5997 -1.8 1.26711e-006
v -4.5997 -8.6 1.26711e-006
v -4.5997 -1.8 0.5002
v 5.1003 -8.6 0.500199
v 5.1003 -8.6 -4.62121e-007
v 5.1003 -1.8 0.500199
v 5.1003 -1.8 -4.62121e-007
vt -0.971205 0.0513203
vt -0.897771 -0.0948798
vt -0.314867 0.0926534
vt -0.314307 0.11001
vt -0.314305 0.110089
vt -0.308064 -0.225745
vt -0.304148 -0.273741
vt -0.304129 -0.273955
vt -0.239335 0.0827696
vt -0.236912 -0.163864
vt -0.16383 -0.0118172
vt -0.154357 -0.0154363
vt -0.154317 -0.0154518
vt -0.133169 -0.00638013
vt -0.131543 0.0967224
vt -0.10987 0.0317001
vt -0.101429 0.0405731
vt -0.101394 0.0406105
vt -0.0993441 -0.056536
vt -0.099238 -0.0729693
vt -0.0988712 0.112534
vt -0.0954976 0.280876
vt -0.0918376 0.00879984
vt -0.0652809 -0.192002
vt 0.0270126 -0.0108193
vt 0.0499321 0.00499979
vt 0.0652816 0.192006
vt 0.0812571 -0.0325043
vt 0.0954983 -0.280876
vt 0.0988881 -0.111082
vt 0.0992386 0.0729693
vt 0.0993489 0.0557997
vt 0.109869 -0.0317001
vt 0.121766 0.0121772
vt 0.126617 -0.00702017
vt 0.131545 -0.0967244
vt 0.16383 0.0118172
vt 0.181533 0.00503247
vt 0.233034 0.675981
vt 0.233465 0.234452
vt 0.239047 -0.0961231
vt 0.290825 -0.39269
vt 0.308065 0.225745
vt 0.312844 0.145889
vt 0.314868 -0.0926534
vt 0.315371 -0.0735339
vt 0.961987 0.058827
vt 0.990076 -0.0302723
vn 1 0 -0
vn 1 0 -0
vn 1 0 -0
vn 1 0 -0
vn 1 0 -0
vn 1 0 -0
vn -1 0 4.76647e-007
vn -1 0 4.76647e-007
vn -1 0 4.76647e-007
vn -1 0 4.76647e-007
vn -1 0 4.76647e-007
vn -1 0 4.76647e-007
vn 1.63862e-007 0 1
vn 1.63862e-007 0 1
vn 1.63862e-007 0 1
vn 1.63862e-007 0 1
vn 1.63862e-007 0 1
vn 1.63862e-007 0 1
vn 1 0 -0
vn 1 0 -0
vn 1 0 -0
vn 1 0 -0
vn 1 0 -0
vn 1 0 -0
vn -1 0 -0
vn -1 0 -0
vn -1 0 -0
vn -1 0 -0
vn -1 0 -0
vn -1 0 -0
vn 1.84344e-007 0 1
vn 1.84344e-007 0 1
vn 1.84344e-007 0 1
vn 1.84344e-007 0 1
vn 1.84344e-007 0 1
vn 1.84344e-007 0 1
vn -1 0 -0
vn -1 0 -0
vn -1 0 -0
vn -1 0 -0
vn -1 0 -0
vn -1 0 -0
vn 1 0 -0
vn 1 0 -0
vn 1 0 -0
vn 1 0 -0
vn 1 0 -0
vn 1 0 -0
vn 1.67225e-007 0 1
vn 1.67225e-007 0 1
vn 1.67225e-007 0 1
vn 1.67225e-007 0 1
vn 1.67225e-007 0 1
vn 1.67225e-007 0 1
vn 1 0 -4.76647e-007
vn 1 0 -4.76647e-007
vn 1 0 -4.76647e-007
vn 1 0 -4.76647e-007
vn 1 0 -4.76647e-007
vn 1 0 -4.76647e-007
vn -1 0 9.53294e-007
vn -1 0 9.53294e-007
vn -1 0 9.53294e-007
vn -1 0 9.53294e-007
vn -1 0 9.53294e-007
vn -1 0 9.53294e-007
vn 2.2531e-007 0 1
vn 2.2531e-007 0 1
vn 2.2531e-007 0 1
vn 2.2531e-007 0 1
vn 2.2531e-007 0 1
vn 2.2531e-007 0 1
vn 1 0 -0
vn 1 0 -0
vn 1 0 -0
vn 1 0 -0
vn 1 0 -0
vn 1 0 -0
vn -0 1 -0
vn -0 1 -0
vn -0 1 -0
vn 0 1 -0
vn 0 1 -0
vn 0 1 -0
vn -1 0 -0
vn -1 0 -0
vn -1 0 -0
vn -1 0 -0
vn -1 0 -0
vn -1 0 -0
vn 0 -1 0
vn 0 -1 0
vn 0 -1 0
vn -0 -1 -0
vn -0 -1 -0
vn -0 -1 -0
vn 0 -1 0
vn 0 -1 0
vn 0 -1 0
vn -0 -1 -0
vn -0 -1 -0
vn -0 -1 -0
vn 0 -1 -0
vn 0 -1 -0
vn 0 -1 -0
vn 0 -1 -0
vn 0 -1 -0
vn 0 -1 -0
vn 0 -1 -0
vn 0 -1 -0
vn 0 -1 -0
vn 0 -1 -0
vn 0 -1 -0
vn 0 -1 -0
vn 0 -1 -0
vn 0 -1 -0
vn 0 -1 -0
vn 0 -1 -0
vn 0 -1 -0
vn 0 -1 -0
vn 0 -1 -0
vn 0 -1 -0
vn 0 -1 -0
vn 0 -1 0
vn 0 -1 0
vn 0 -1 0
vn 0 -1 -0
vn 0 -1 -0
vn 0 -1 -0
vn 0 -1 -0
vn 0 -1 -0
vn 0 -1 -0
vn 0 -1 -0
vn 0 -1 -0
vn 0 -1 -0
vn 0 -1 -0
vn 0 -1 -0
vn 0 -1 -0
vn 0 -1 -0
vn 0 -1 -0
vn 0 -1 -0
vn 0 -1 0
vn 0 -1 0
vn 0 -1 0
vn 1.84344e-007 0 1
vn 1.84344e-007 0 1
vn 1.84344e-007 0 1
vn 1.84344e-007 0 1
vn 1.84344e-007 0 1
vn 1.84344e-007 0 1
vn -1 0 -0
vn -1 0 -0
vn -1 0 -0
vn -1 0 -0
vn -1 0 -0
vn -1 0 -0
vn 0 -1 0
vn 0 -1 0
vn 0 -1 0
vn -0 -1 -0
vn -0 -1 -0
vn -0 -1 -0
vn 1 0 -0
vn 1 0 -0
vn 1 0 -0
vn 1 0 -0
vn 1 0 -0
vn 1 0 -0
vn -0 1 -0
vn -0 1 -0
vn -0 1 -0
vn 0 1 -0
vn 0 1 -0
vn 0 1 -0
vn -0 1 -0
vn -0 1 -0
vn -0 1 -0
vn 0 1 -0
vn 0 1 -0
vn 0 1 -0
vn 0 1 0
vn 0 1 0
vn 0 1 0
vn 0 1 -0
vn 0 1 -0
vn 0 1 -0
vn 0 1 -0
vn 0 1 -0
vn 0 1 -0
vn 0 1 -0
vn 0 1 -0
vn 0 1 -0
vn 0 1 -0
vn 0 1 -0
vn 0 1 -0
vn 0 1 -0
vn 0 1 -0
vn 0 1 -0
vn 0 1 -0
vn 0 1 -0
vn 0 1 -0
vn 0 1 -0
vn 0 1 -0
vn 0 1 -0
vn 0 1 -0
vn 0 1 -0
vn 0 1 -0
vn 0 1 -0
vn 0 1 -0
vn 0 1 -0
vn -0 1 -0
vn -0 1 -0
vn -0 1 -0
vn -0 1 -0
vn -0 1 -0
vn -0 1 -0
vn -0 1 -0
vn -0 1 -0
vn -0 1 -0
vn 0 1 -0
vn 0 1 -0
vn 0 1 -0
vn 1.84344e-007 0 1
vn 1.84344e-007 0 1
vn 1.84344e-007 0 1
vn 1.84344e-007 0 1
vn 1.84344e-007 0 1
vn 1.84344e-007 0 1
vn -1.53481e-007 1.76847e-008 -1
vn -1.53481e-007 1.76847e-008 -1
vn -1.53481e-007 1.76847e-008 -1
vn -2.15154e-007 -1.74927e-008 -1
vn -2.15154e-007 -1.74927e-008 -1
vn -2.15154e-007 -1.74927e-008 -1
vn -2.15154e-007 0 -1
vn -2.15154e-007 0 -1
vn -2.15154e-007 0 -1
vn -2.15154e-007 0 -1
vn -2.15154e-007 0 -1
vn -2.15154e-007 0 -1
vn -2.15154e-007 1.74927e-008 -1
vn -2.15154e-007 1.74927e-008 -1
vn -2.15154e-007 1.74927e-008 -1
vn -1.70447e-007 1.55875e-009 -1
vn -1.70447e-007 1.55875e-009 -1
vn -1.70447e-007 1.55875e-009 -1
vn -1.79295e-007 3.80182e-009 -1
vn -1.79295e-007 3.80182e-009 -1
vn -1.79295e-007 3.80182e-009 -1
vn -1.79295e-007 0 -1
vn -1.79295e-007 0 -1
vn -1.79295e-007 0 -1
vn -1.79295e-007 0 -1
vn -1.79295e-007 0 -1
vn -1.79295e-007 0 -1
vn -1.79295e-007 -3.80182e-009 -1
vn -1.79295e-007 -3.80182e-009 -1
vn -1.79295e-007 -3.80182e-009 -1
vn -1.70447e-007 -1.55875e-009 -1
vn -1.70447e-007 -1.55875e-009 -1
vn -1.70447e-007 -1.55875e-009 -1
vn -1.94663e-007 0 -1
vn -1.94663e-007 0 -1
vn -1.94663e-007 0 -1
vn -1.94663e-007 0 -1
vn -1.94663e-007 0 -1
vn -1.94663e-007 0 -1
vn -1.94663e-007 1.16962e-008 -1
vn -1.94663e-007 1.16962e-008 -1
vn -1.94663e-007 1.16962e-008 -1
vn -1.84411e-007 6.5772e-009 -1
vn -1.84411e-007 6.5772e-009 -1
vn -1.84411e-007 6.5772e-009 -1
vn -1.825e-007 5.89578e-009 -1
vn -1.825e-007 5.89578e-009 -1
vn -1.825e-007 5.89578e-009 -1
vn -1.825e-007 0 -1
vn -1.825e-007 0 -1
vn -1.825e-007 0 -1
vn -1.825e-007 0 -1
vn -1.825e-007 0 -1
vn -1.825e-007 0 -1
vn -1.825e-007 -5.89578e-009 -1
vn -1.825e-007 -5.89578e-009 -1
vn -1.825e-007 -5.89578e-009 -1
vn -1.84411e-007 -6.5772e-009 -1
vn -1.84411e-007 -6.5772e-009 -1
vn -1.84411e-007 -6.5772e-009 -1
vn -1.94663e-007 -1.16962e-008 -1
vn -1.94663e-007 -1.16962e-008 -1
vn -1.94663e-007 -1.16962e-008 -1
vn -1.78271e-007 -4.08142e-012 -1
vn -1.78271e-007 -4.08142e-012 -1
vn -1.78271e-007 -4.08142e-012 -1
vn -1.53481e-007 -1.76847e-008 -1
vn -1.53481e-007 -1.76847e-008 -1
vn -1.53481e-007 -1.76847e-008 -1
vn -8.31551e-008 0 -1
vn -8.31551e-008 0 -1
vn -8.31551e-008 0 -1
vn -9.62314e-008 0 -1
vn -9.62314e-008 0 -1
vn -9.62314e-008 0 -1
vn -9.62314e-008 0 -1
vn -9.62314e-008 0 -1
vn -9.62314e-008 0 -1
vn -1.78271e-007 4.08142e-012 -1
vn -1.78271e-007 4.08142e-012 -1
vn -1.78271e-007 4.08142e-012 -1
vn -8.31551e-008 0 -1
vn -8.31551e-008 0 -1
vn -8.31551e-008 0 -1
g Default
usemtl Default
s off
f 1/45/1 2/37/2 3/33/3
f 4/43/4 2/37/5 1/45/6
f 5/5/7 6/13/8 7/18/9
f 8/8/10 6/13/11 5/5/12
f 1/45/13 5/5/14 4/43/15
f 8/8/16 5/5/17 1/45/18
f 9/46/19 10/38/20 11/35/21
f 12/44/22 10/38/23 9/46/24
f 13/3/25 14/11/26 15/16/27
f 16/6/28 14/11/29 13/3/30
f 9/46/31 13/3/32 12/44/33
f 16/6/34 13/3/35 9/46/36
f 17/9/37 18/14/38 19/23/39
f 20/10/40 18/14/41 17/9/42
f 21/41/43 22/34/44 23/28/45
f 24/40/46 22/34/47 21/41/48
f 21/41/49 17/9/50 24/40/51
f 20/10/52 17/9/53 21/41/54
f 25/42/55 26/26/56 27/25/57
f 28/39/58 26/26/59 25/42/60
f 29/4/61 30/12/62 31/17/63
f 32/7/64 30/12/65 29/4/66
f 25/42/67 29/4/68 28/39/69
f 32/7/70 29/4/71 25/42/72
f 33/31/73 34/48/74 35/27/75
f 36/30/76 34/48/77 33/31/78
f 37/22/79 35/27/80 38/15/81
f 33/31/82 35/27/83 37/22/84
f 39/19/85 38/15/86 40/2/87
f 37/22/88 38/15/89 39/19/90
f 8/8/91 27/25/92 6/13/93
f 25/42/94 27/25/95 8/8/96
f 36/30/97 25/42/98 8/8/99
f 39/19/100 25/42/101 36/30/102
f 32/7/103 25/42/104 39/19/105
f 21/41/106 32/7/107 39/19/108
f 23/28/109 32/7/110 21/41/111
f 30/12/112 32/7/113 23/28/114
f 39/19/115 20/10/116 21/41/117
f 40/2/118 20/10/119 39/19/120
f 18/14/121 20/10/122 40/2/123
f 36/30/124 9/46/125 34/48/126
f 16/6/127 9/46/128 36/30/129
f 1/45/130 16/6/131 36/30/132
f 3/33/133 16/6/134 1/45/135
f 14/11/136 16/6/137 3/33/138
f 9/46/139 11/35/140 34/48/141
f 36/30/142 8/8/143 1/45/144
f 33/31/145 39/19/146 36/30/147
f 37/22/148 39/19/149 33/31/150
f 41/20/151 42/1/152 43/24/153
f 44/21/154 42/1/155 41/20/156
f 45/29/157 43/24/158 46/36/159
f 41/20/160 43/24/161 45/29/162
f 47/32/163 46/36/164 48/47/165
f 45/29/166 46/36/167 47/32/168
f 4/43/169 15/16/170 2/37/171
f 13/3/172 15/16/173 4/43/174
f 47/32/175 13/3/176 4/43/177
f 12/44/178 13/3/179 47/32/180
f 48/47/181 12/44/182 47/32/183
f 10/38/184 12/44/185 48/47/186
f 47/32/187 28/39/188 44/21/189
f 5/5/190 28/39/191 47/32/192
f 4/43/193 5/5/194 47/32/195
f 44/21/196 17/9/197 42/1/198
f 24/40/199 17/9/200 44/21/201
f 29/4/202 24/40/203 44/21/204
f 31/17/205 24/40/206 29/4/207
f 22/34/208 24/40/209 31/17/210
f 17/9/211 19/23/212 42/1/213
f 44/21/214 28/39/215 29/4/216
f 28/39/217 7/18/218 26/26/219
f 5/5/220 7/18/221 28/39/222
f 41/20/223 47/32/224 44/21/225
f 45/29/226 47/32/227 41/20/228
f 7/18/229 46/36/230 26/26/231
f 2/37/232 46/36/233 7/18/234
f 6/13/235 2/37/236 7/18/237
f 3/33/238 2/37/239 6/13/240
f 35/27/241 3/33/242 6/13/243
f 14/11/244 3/33/245 35/27/246
f 11/35/247 14/11/248 35/27/249
f 10/38/250 14/11/251 11/35/252
f 15/16/253 14/11/254 10/38/255
f 46/36/256 15/16/257 10/38/258
f 2/37/259 15/16/260 46/36/261
f 26/26/262 30/12/263 27/25/264
f 31/17/265 30/12/266 26/26/267
f 43/24/268 31/17/269 26/26/270
f 22/34/271 31/17/272 43/24/273
f 19/23/274 22/34/275 43/24/276
f 18/14/277 22/34/278 19/23/279
f 23/28/280 22/34/281 18/14/282
f 38/15/283 23/28/284 18/14/285
f 30/12/286 23/28/287 38/15/288
f 27/25/289 30/12/290 38/15/291
f 35/27/292 27/25/293 38/15/294
f 6/13/295 27/25/296 35/27/297
f 35/27/298 34/48/299 11/35/300
f 18/14/301 40/2/302 38/15/303
f 43/24/304 42/1/305 19/23/306
f 26/26/307 46/36/308 43/24/309
f 10/38/310 48/47/311 46/36/312
