####
#
#	OBJ File Generated by LightWave3D
#	LightWave3D OBJ Export v2.3
#
####
o hinge-05mmx10mmflexsimplePLAIN.obj
mtllib hinge-05mmx10mmflexsimplePLAIN.mtl
g default
v -4.6 -8.6 0.6
v -4.6 10 0.6
v 5.2 10 0.6
v 5.2 -8.6 0.6
v -4.6 -8.6 -0
v -4.6 10 -0
v 5.2 10 -0
v 5.2 -8.6 -0
vn 0 0 1
vn 0 0 1
vn 0 0 1
vn 0 0 1
vn 0 0 1
vn 0 0 1
vn -1 0 -0
vn -1 0 -0
vn -1 0 -0
vn -1 0 -0
vn -1 0 -0
vn -1 0 -0
vn 0 1 -0
vn 0 1 -0
vn 0 1 -0
vn 0 1 0
vn 0 1 0
vn 0 1 0
vn 1 0 -0
vn 1 0 -0
vn 1 0 -0
vn 1 -0 -0
vn 1 -0 -0
vn 1 -0 -0
vn 0 -1 -0
vn 0 -1 -0
vn 0 -1 -0
vn 0 -1 -0
vn 0 -1 -0
vn 0 -1 -0
vn 0 0 -1
vn 0 0 -1
vn 0 0 -1
vn 0 -0 -1
vn 0 -0 -1
vn 0 -0 -1
g Default
usemtl Default
s off
f 4//1 2//2 1//3
f 3//4 2//5 4//6
f 2//7 5//8 1//9
f 2//10 6//11 5//12
f 3//13 6//14 2//15
f 7//16 6//17 3//18
f 8//19 3//20 4//21
f 7//22 3//23 8//24
f 5//25 4//26 1//27
f 5//28 8//29 4//30
f 6//31 8//32 5//33
f 6//34 7//35 8//36
